<?xml version="1.0"?>
<svg xmlns="http://www.w3.org/2000/svg" height="512px" viewBox="0 0 480.00576 480" width="512px"><g><path d="m475.574219 232.84375-64-32c-2.480469-1.242188-5.425781-1.105469-7.785157.351562-2.355468 1.457032-3.792968 4.035157-3.789062 6.808594v24h-70.136719c19.582031-25.148437 30.191407-56.125 30.136719-88 0-78.058594-69.601562-143.99999975-152-143.99999975-2.566406-.00390625-4.976562 1.22656275-6.480469 3.30468775l-142.433593 196.695312h-51.085938c-3.238281 0-6.152344 1.949219-7.390625 4.9375-1.238281 2.988282-.5546875 6.429688 1.734375 8.71875l26.34375 26.34375-26.34375 26.34375c-2.2890625 2.289063-2.972656 5.726563-1.734375 8.714844 1.238281 2.992188 4.152344 4.941406 7.390625 4.941406h51.085938l142.398437 196.695313c1.515625 2.085937 3.9375 3.316406 6.515625 3.304687 82.398438 0 152-65.945312 152-144 .054688-31.875-10.554688-62.851562-30.136719-88h70.136719v24c-.015625 2.777344 1.414062 5.367188 3.773438 6.835938 2.359374 1.46875 5.3125 1.605468 7.800781.363281l64-32c2.714843-1.355469 4.429687-4.125 4.429687-7.160156 0-3.035157-1.714844-5.808594-4.429687-7.160157zm-448.265625-16.839844h41.378906l16 16h-41.378906zm0 48 16-16h41.378906l-16 16zm316.691406 72c0 66.910156-61.203125 125.773438-131.960938 127.933594l-134.730468-186.046875c.105468-.097656.25-.136719.34375-.230469l29.65625-29.65625h201.488281c22.648437 23.691406 35.261719 55.222656 35.203125 88zm-35.203125-104h-201.488281l-29.65625-29.65625c-.09375-.097656-.238282-.136718-.34375-.234375l134.730468-186.046875c70.757813 2.160156 131.960938 61.023438 131.960938 127.9375.058594 32.773438-12.554688 64.304688-35.203125 88zm107.203125 27.054688v-38.113282l38.109375 19.058594zm0 0" data-original="#000000" class="active-path" data-old_color="#707E3E" fill="#70703E"/></g> </svg>
