<?xml version="1.0"?>
<svg xmlns="http://www.w3.org/2000/svg" height="512px" viewBox="0 0 512.00006 512" width="512px" class=""><g><path d="m486.398438 204.800781h-8.53125v-25.601562c-.011719-9.421875-7.644532-17.054688-17.066407-17.066407h-187.734375v-17.066406c.011719-20.195312-11.859375-38.507812-30.296875-46.746094-18.4375-8.242187-40-4.863281-55.035156 8.617188v-55.738281c0-28.277344-22.925781-51.199219-51.199219-51.199219-28.277344 0-51.203125 22.921875-51.203125 51.199219v81.246093c-15.070312-13.421874-36.613281-16.75-55.03125-8.5-18.421875 8.25-30.2812498 26.539063-30.300781 46.722657v290.132812c0 28.277344 22.921875 51.199219 51.199219 51.199219 28.277343 0 51.199219-22.921875 51.199219-51.199219v-81.339843c19.421874 17.429687 48.847656 17.429687 68.269531 0v55.738281c0 28.277343 22.921875 51.199219 51.199219 51.199219 28.277343 0 51.199218-22.921876 51.199218-51.199219v-86.90625c10.199219-3.589844 17.035156-13.214844 17.066406-24.027344v-17.066406c.003907-4.710938 3.824219-8.527344 8.535157-8.53125 14.128906-.015625 25.582031-11.46875 25.597656-25.601563.003906-4.710937 3.824219-8.527344 8.535156-8.53125h128c9.421875-.011718 17.054688-7.648437 17.066407-17.070312v-25.597656h8.53125c4.710937.003906 8.53125 3.820312 8.535156 8.53125v39.773437c.007812 3.457031-2.082032 6.578125-5.285156 7.886719l-113.363282 46.675781c-16.011718 6.558594-26.457031 22.15625-26.417968 39.457031v28.34375h-8.535157c-9.417969.007813-17.054687 7.644532-17.066406 17.066406v76.796876c.015625 14.132812 11.46875 25.585937 25.601563 25.601562h17.066406c14.132812-.015625 25.585937-11.46875 25.601562-25.601562v-76.796876c-.011718-9.421874-7.648437-17.058593-17.070312-17.066406h-8.53125v-28.34375c-.019532-10.378906 6.246094-19.738281 15.847656-23.671875l113.367188-46.675781c9.605468-3.933594 15.875-13.292969 15.851562-23.671875v-39.773437c-.015625-14.128907-11.46875-25.582032-25.601562-25.597657zm-264.53125 264.53125c-18.84375-.019531-34.113282-15.289062-34.132813-34.132812v-93.867188c0-4.710937-3.820313-8.53125-8.535156-8.53125-4.710938 0-8.53125 3.820313-8.53125 8.53125 0 18.851563-15.285157 34.132813-34.132813 34.132813-18.851562 0-34.136718-15.28125-34.136718-34.132813 0-4.710937-3.820313-8.53125-8.53125-8.53125-4.714844 0-8.535157 3.820313-8.535157 8.53125v119.46875c0 18.851563-15.28125 34.132813-34.132812 34.132813-18.851563 0-34.132813-15.28125-34.132813-34.132813v-290.132812c0-18.851563 15.28125-34.132813 34.132813-34.132813 18.851562 0 34.132812 15.28125 34.132812 34.132813 0 4.710937 3.820313 8.53125 8.535157 8.53125 4.710937 0 8.53125-3.820313 8.53125-8.53125v-119.46875c0-18.851563 15.285156-34.132813 34.136718-34.132813 18.847656 0 34.132813 15.28125 34.132813 34.132813v93.867187c0 4.714844 3.820312 8.535156 8.53125 8.535156 4.714843 0 8.535156-3.820312 8.535156-8.535156 0-18.851562 15.28125-34.132812 34.132813-34.132812 18.851562 0 34.132812 15.28125 34.132812 34.132812v17.066406c-9.421875.011719-17.054688 7.644532-17.066406 17.066407v145.066406c.03125 10.8125 6.867187 20.4375 17.066406 24.027344v86.90625c-.019531 18.84375-15.289062 34.113281-34.132812 34.132812zm238.933593-221.867187h-128c-14.132812.015625-25.585937 11.46875-25.601562 25.601562-.003907 4.710938-3.820313 8.53125-8.53125 8.535156-14.132813.015626-25.585938 11.464844-25.601563 25.597657v17.066406c0 4.714844-3.820312 8.535156-8.53125 8.535156-4.714844 0-8.535156-3.820312-8.535156-8.535156v-145.066406l204.800781.027343zm-85.335937 238.933594c-.003906 4.710937-3.820313 8.53125-8.53125 8.535156h-17.066406c-4.710938-.003906-8.53125-3.824219-8.535157-8.535156v-76.796876h34.132813zm0 0" data-original="#000000" class="active-path" data-old_color="#70703E" fill="#70707E"/><path d="m366.933594 196.265625h-8.535156c-4.710938 0-8.53125 3.820313-8.53125 8.535156 0 4.710938 3.820312 8.53125 8.53125 8.53125h8.535156c4.710937 0 8.53125-3.820312 8.53125-8.53125 0-4.714843-3.820313-8.535156-8.53125-8.535156zm0 0" data-original="#000000" class="active-path" data-old_color="#70703E" fill="#70707E"/><path d="m435.199219 196.265625h-34.132813c-4.710937 0-8.53125 3.820313-8.53125 8.535156 0 4.710938 3.820313 8.53125 8.53125 8.53125h34.132813c4.714843 0 8.535156-3.820312 8.535156-8.53125 0-4.714843-3.820313-8.535156-8.535156-8.535156zm0 0" data-original="#000000" class="active-path" data-old_color="#70703E" fill="#70707E"/></g> </svg>
